<?xml version="1.0" encoding="utf-8"?>
<!-- Generator: Adobe Illustrator 19.2.1, SVG Export Plug-In . SVG Version: 6.00 Build 0)  -->
<svg version="1.1" id="Layer_1" xmlns="http://www.w3.org/2000/svg" xmlns:xlink="http://www.w3.org/1999/xlink" x="0px" y="0px"
	 viewBox="0 0 300 186.8" style="enable-background:new 0 0 300 186.8;" xml:space="preserve">
<style type="text/css">
	.st0{fill:#FFFFFF;}
	.st1{fill:#1A1A1A;}
	.st2{fill:#FFFFFF;stroke:#231F20;}
	.st3{fill:#D1D2D3;}
	.st4{fill:#7EB2CA;}
	.st5{fill:none;stroke:#5E8CAE;}
	.st6{fill:#B6E2F7;stroke:#B6E2F7;stroke-miterlimit:10;}
	.st7{fill:#A0C0DD;}
	.st8{fill:none;stroke:#76ACC5;stroke-miterlimit:10;}
	.st9{fill:none;stroke:#76ACC6;stroke-miterlimit:10;}
	.st10{fill:none;stroke:#77ADC6;stroke-miterlimit:10;}
	.st11{fill:none;stroke:#78ADC7;stroke-miterlimit:10;}
	.st12{fill:none;stroke:#79AEC7;stroke-miterlimit:10;}
	.st13{fill:none;stroke:#7AAEC8;stroke-miterlimit:10;}
	.st14{fill:none;stroke:#7BAFC8;stroke-miterlimit:10;}
	.st15{fill:none;stroke:#7CAFC9;stroke-miterlimit:10;}
	.st16{fill:none;stroke:#7DB0C9;stroke-miterlimit:10;}
	.st17{fill:none;stroke:#7EB1C9;stroke-miterlimit:10;}
	.st18{fill:none;stroke:#7FB1CA;stroke-miterlimit:10;}
	.st19{fill:none;stroke:#7FB2CA;stroke-miterlimit:10;}
	.st20{fill:none;stroke:#80B2CB;stroke-miterlimit:10;}
	.st21{fill:none;stroke:#81B3CB;stroke-miterlimit:10;}
	.st22{fill:none;stroke:#82B3CC;stroke-miterlimit:10;}
	.st23{fill:none;stroke:#83B4CC;stroke-miterlimit:10;}
	.st24{fill:none;stroke:#84B4CC;stroke-miterlimit:10;}
	.st25{fill:none;stroke:#85B5CD;stroke-miterlimit:10;}
	.st26{fill:none;stroke:#86B6CD;stroke-miterlimit:10;}
	.st27{fill:none;stroke:#87B6CE;stroke-miterlimit:10;}
	.st28{fill:none;stroke:#88B7CE;stroke-miterlimit:10;}
	.st29{fill:none;stroke:#89B7CF;stroke-miterlimit:10;}
	.st30{fill:none;stroke:#89B8CF;stroke-miterlimit:10;}
	.st31{fill:none;stroke:#8AB8D0;stroke-miterlimit:10;}
	.st32{fill:none;stroke:#8BB9D0;stroke-miterlimit:10;}
	.st33{fill:none;stroke:#8CBAD1;stroke-miterlimit:10;}
	.st34{fill:none;stroke:#8DBAD1;stroke-miterlimit:10;}
	.st35{fill:none;stroke:#8EBBD2;stroke-miterlimit:10;}
	.st36{fill:none;stroke:#8FBBD2;stroke-miterlimit:10;}
	.st37{fill:none;stroke:#90BCD2;stroke-miterlimit:10;}
	.st38{fill:none;stroke:#91BDD3;stroke-miterlimit:10;}
	.st39{fill:none;stroke:#92BDD3;stroke-miterlimit:10;}
	.st40{fill:none;stroke:#93BED4;stroke-miterlimit:10;}
	.st41{fill:none;stroke:#94BFD5;stroke-miterlimit:10;}
	.st42{fill:none;stroke:#95C0D5;stroke-miterlimit:10;}
	.st43{fill:none;stroke:#96C0D6;stroke-miterlimit:10;}
	.st44{fill:none;stroke:#97C1D6;stroke-miterlimit:10;}
	.st45{fill:none;stroke:#98C1D7;stroke-miterlimit:10;}
	.st46{fill:none;stroke:#99C2D7;stroke-miterlimit:10;}
	.st47{fill:none;stroke:#9AC3D8;stroke-miterlimit:10;}
	.st48{fill:none;stroke:#9BC3D8;stroke-miterlimit:10;}
	.st49{fill:none;stroke:#9CC4D9;stroke-miterlimit:10;}
	.st50{fill:none;stroke:#9DC5D9;stroke-miterlimit:10;}
	.st51{fill:none;stroke:#9EC5DA;stroke-miterlimit:10;}
	.st52{fill:none;stroke:#9FC6DA;stroke-miterlimit:10;}
	.st53{fill:none;stroke:#9FC6DB;stroke-miterlimit:10;}
	.st54{fill:none;stroke:#A0C7DB;stroke-miterlimit:10;}
	.st55{fill:none;stroke:#A1C8DC;stroke-miterlimit:10;}
	.st56{fill:none;stroke:#A2C8DC;stroke-miterlimit:10;}
	.st57{fill:none;stroke:#A3C9DD;stroke-miterlimit:10;}
	.st58{fill:none;stroke:#A4CADD;stroke-miterlimit:10;}
	.st59{fill:none;stroke:#A5CADE;stroke-miterlimit:10;}
	.st60{fill:none;stroke:#A6CBDE;stroke-miterlimit:10;}
	.st61{fill:none;stroke:#A7CCDF;stroke-miterlimit:10;}
	.st62{fill:none;stroke:#A8CCDF;stroke-miterlimit:10;}
	.st63{fill:none;stroke:#A9CDE0;stroke-miterlimit:10;}
	.st64{fill:none;stroke:#AACEE0;stroke-miterlimit:10;}
	.st65{fill:none;stroke:#ABCEE1;stroke-miterlimit:10;}
	.st66{fill:none;stroke:#ACCFE1;stroke-miterlimit:10;}
	.st67{fill:none;stroke:#ADD0E2;stroke-miterlimit:10;}
	.st68{fill:none;stroke:#AED0E2;stroke-miterlimit:10;}
	.st69{fill:none;stroke:#AFD1E3;stroke-miterlimit:10;}
	.st70{fill:none;stroke:#B0D2E3;stroke-miterlimit:10;}
	.st71{fill:none;stroke:#B1D2E4;stroke-miterlimit:10;}
	.st72{fill:none;stroke:#B2D3E4;stroke-miterlimit:10;}
	.st73{fill:none;stroke:#B3D4E5;stroke-miterlimit:10;}
	.st74{fill:none;stroke:#B4D4E5;stroke-miterlimit:10;}
	.st75{fill:none;stroke:#B5D5E6;stroke-miterlimit:10;}
	.st76{fill:none;stroke:#B5D6E6;stroke-miterlimit:10;}
	.st77{fill:none;stroke:#B6D6E7;stroke-miterlimit:10;}
	.st78{fill:none;stroke:#B7D7E8;stroke-miterlimit:10;}
	.st79{fill:none;stroke:#B8D8E8;stroke-miterlimit:10;}
	.st80{fill:none;stroke:#BE202E;stroke-miterlimit:10;}
	.st81{opacity:0.3;fill-rule:evenodd;clip-rule:evenodd;fill:#FFFFFF;stroke:#000000;}
	.st82{fill-rule:evenodd;clip-rule:evenodd;fill:#FFFFFF;stroke:#000000;}
	.st83{fill:none;stroke:#1A1A1A;stroke-width:1.2;stroke-miterlimit:10;}
	.st84{fill:none;stroke:#231F20;stroke-width:0.25;}
	.st85{fill:#FFFFFF;stroke:#231F20;stroke-miterlimit:10;}
	.st86{fill:none;stroke:#FFFFFF;stroke-miterlimit:10;}
	.st87{fill:none;stroke:#FDF165;stroke-miterlimit:10;}
	.st88{font-family:'Antenna-Regular';}
	.st89{font-size:12px;}
	.st90{fill:none;stroke:#000000;stroke-width:2;}
	.st91{fill:none;stroke:#4E4F50;stroke-width:0.5;}
	.st92{fill:none;stroke:#000000;stroke-width:0.5;}
</style>
<g>
	<g>
		<g>
			<g>
				<path class="st0" d="M199.9,179.4c-0.1,0-0.3,0-0.4-0.1L3.6,66.3c-0.2-0.1-0.4-0.4-0.4-0.7l0-1.7C3.1,63.8,3,63.6,3,63.5
					c0-0.3,0.1-0.5,0.4-0.6l98-56.5c0.1-0.1,0.2-0.1,0.4-0.1c0.1,0,0.3,0,0.4,0.1l195.5,113c0.2,0.1,0.4,0.4,0.4,0.7l0,2.1
					c0,0.3-0.1,0.5-0.4,0.6l-97.3,56.6C200.2,179.4,200,179.4,199.9,179.4z"/>
				<path class="st1" d="M101.8,7L101.8,7l195.5,113l0,2.1l-97.3,56.6L4,65.6l0-2.1l-0.2-0.1L101.8,7 M101.8,5.5
					c-0.3,0-0.5,0.1-0.7,0.2L3,62.2c-0.5,0.3-0.8,0.8-0.8,1.3c0,0.3,0.1,0.5,0.2,0.7l0,1.4c0,0.5,0.3,1,0.8,1.3l195.9,113
					c0.2,0.1,0.5,0.2,0.7,0.2c0.3,0,0.5-0.1,0.8-0.2l97.3-56.6c0.5-0.3,0.7-0.8,0.7-1.3l0-2.1c0-0.5-0.3-1-0.7-1.3L102.6,5.7
					l-0.1-0.1C102.3,5.5,102,5.5,101.8,5.5L101.8,5.5z"/>
			</g>
			<polyline class="st2" points="199.7,176.2 199.7,178.3 4.2,65.5 4.2,63.5 			"/>
			<polyline class="st2" points="199.7,176.2 199.7,178.3 297.2,122 297.3,120 			"/>
			<polygon class="st3" points="199.7,176.2 297.3,120 101.8,7.2 4.2,63.5 			"/>
			<polygon class="st3" points="199.7,176.2 297.3,120 101.8,7.2 4.2,63.5 			"/>
			<polygon class="st2" points="199.7,176.2 297.3,120 101.8,7.2 4.2,63.5 			"/>
			<polygon class="st4" points="44.7,76.5 190.8,160.7 256.7,122.7 110.7,38.5 			"/>
			<polygon class="st4" points="110.7,22.7 31,68.6 44.7,76.5 110.7,38.5 256.7,122.7 270.5,114.8 			"/>
			<g>
				<polygon class="st4" points="110.7,38.5 110.7,22.7 31,68.6 44.7,76.5 				"/>
				<line class="st5" x1="110.7" y1="22.7" x2="31" y2="68.6"/>
			</g>
			<g>
				<polygon class="st6" points="110.7,38.5 44.7,76.5 190.8,160.7 256.7,122.7 				"/>
				<line class="st7" x1="110.7" y1="38.5" x2="44.7" y2="76.5"/>
			</g>
			<g>
				<line class="st8" x1="110.7" y1="33.3" x2="40.6" y2="74.1"/>
				<line class="st9" x1="110.7" y1="33.3" x2="40.6" y2="74.2"/>
				<line class="st10" x1="110.7" y1="33.4" x2="40.7" y2="74.2"/>
				<line class="st11" x1="110.7" y1="33.5" x2="40.7" y2="74.2"/>
				<line class="st12" x1="110.7" y1="33.5" x2="40.8" y2="74.3"/>
				<line class="st13" x1="110.7" y1="33.6" x2="40.8" y2="74.3"/>
				<line class="st14" x1="110.7" y1="33.7" x2="40.9" y2="74.3"/>
				<line class="st15" x1="110.7" y1="33.8" x2="41" y2="74.4"/>
				<line class="st16" x1="110.7" y1="33.8" x2="41" y2="74.4"/>
				<line class="st17" x1="110.7" y1="33.9" x2="41.1" y2="74.4"/>
				<line class="st18" x1="110.7" y1="34" x2="41.1" y2="74.5"/>
				<line class="st19" x1="110.7" y1="34.1" x2="41.2" y2="74.5"/>
				<line class="st20" x1="110.7" y1="34.1" x2="41.3" y2="74.5"/>
				<line class="st21" x1="110.7" y1="34.2" x2="41.3" y2="74.6"/>
				<line class="st22" x1="110.7" y1="34.3" x2="41.4" y2="74.6"/>
				<line class="st23" x1="110.7" y1="34.3" x2="41.4" y2="74.6"/>
				<line class="st24" x1="110.7" y1="34.4" x2="41.5" y2="74.7"/>
				<line class="st25" x1="110.7" y1="34.5" x2="41.5" y2="74.7"/>
				<line class="st26" x1="110.7" y1="34.6" x2="41.6" y2="74.7"/>
				<line class="st27" x1="110.7" y1="34.6" x2="41.7" y2="74.8"/>
				<line class="st28" x1="110.7" y1="34.7" x2="41.7" y2="74.8"/>
				<line class="st29" x1="110.7" y1="34.8" x2="41.8" y2="74.8"/>
				<line class="st30" x1="110.7" y1="34.9" x2="41.8" y2="74.9"/>
				<line class="st31" x1="110.7" y1="34.9" x2="41.9" y2="74.9"/>
				<line class="st32" x1="110.7" y1="35" x2="42" y2="74.9"/>
				<line class="st33" x1="110.7" y1="35.1" x2="42" y2="75"/>
				<line class="st34" x1="110.7" y1="35.1" x2="42.1" y2="75"/>
				<line class="st35" x1="110.7" y1="35.2" x2="42.1" y2="75"/>
				<line class="st36" x1="110.7" y1="35.3" x2="42.2" y2="75.1"/>
				<line class="st37" x1="110.7" y1="35.4" x2="42.2" y2="75.1"/>
				<line class="st38" x1="110.7" y1="35.4" x2="42.3" y2="75.1"/>
				<line class="st39" x1="110.7" y1="35.5" x2="42.4" y2="75.2"/>
				<line class="st40" x1="110.7" y1="35.6" x2="42.4" y2="75.2"/>
				<line class="st40" x1="110.7" y1="35.7" x2="42.5" y2="75.2"/>
				<line class="st41" x1="110.7" y1="35.7" x2="42.5" y2="75.3"/>
				<line class="st42" x1="110.7" y1="35.8" x2="42.6" y2="75.3"/>
				<line class="st43" x1="110.7" y1="35.9" x2="42.6" y2="75.3"/>
				<line class="st44" x1="110.7" y1="35.9" x2="42.7" y2="75.4"/>
				<line class="st45" x1="110.7" y1="36" x2="42.8" y2="75.4"/>
				<line class="st46" x1="110.7" y1="36.1" x2="42.8" y2="75.4"/>
				<line class="st47" x1="110.7" y1="36.2" x2="42.9" y2="75.5"/>
				<line class="st48" x1="110.7" y1="36.2" x2="42.9" y2="75.5"/>
				<line class="st49" x1="110.7" y1="36.3" x2="43" y2="75.5"/>
				<line class="st50" x1="110.7" y1="36.4" x2="43.1" y2="75.6"/>
				<line class="st51" x1="110.7" y1="36.5" x2="43.1" y2="75.6"/>
				<line class="st52" x1="110.7" y1="36.5" x2="43.2" y2="75.6"/>
				<line class="st53" x1="110.7" y1="36.6" x2="43.2" y2="75.7"/>
				<line class="st54" x1="110.7" y1="36.7" x2="43.3" y2="75.7"/>
				<line class="st55" x1="110.7" y1="36.7" x2="43.3" y2="75.7"/>
				<line class="st56" x1="110.7" y1="36.8" x2="43.4" y2="75.8"/>
				<line class="st57" x1="110.7" y1="36.9" x2="43.5" y2="75.8"/>
				<line class="st58" x1="110.7" y1="37" x2="43.5" y2="75.8"/>
				<line class="st59" x1="110.7" y1="37" x2="43.6" y2="75.9"/>
				<line class="st60" x1="110.7" y1="37.1" x2="43.6" y2="75.9"/>
				<line class="st61" x1="110.7" y1="37.2" x2="43.7" y2="75.9"/>
				<line class="st62" x1="110.7" y1="37.3" x2="43.8" y2="76"/>
				<line class="st63" x1="110.7" y1="37.3" x2="43.8" y2="76"/>
				<line class="st64" x1="110.7" y1="37.4" x2="43.9" y2="76"/>
				<line class="st65" x1="110.7" y1="37.5" x2="43.9" y2="76.1"/>
				<line class="st66" x1="110.7" y1="37.6" x2="44" y2="76.1"/>
				<line class="st67" x1="110.7" y1="37.6" x2="44" y2="76.1"/>
				<line class="st68" x1="110.7" y1="37.7" x2="44.1" y2="76.2"/>
				<line class="st69" x1="110.7" y1="37.8" x2="44.2" y2="76.2"/>
				<line class="st70" x1="110.7" y1="37.8" x2="44.2" y2="76.2"/>
				<line class="st71" x1="110.7" y1="37.9" x2="44.3" y2="76.3"/>
				<line class="st72" x1="110.7" y1="38" x2="44.3" y2="76.3"/>
				<line class="st73" x1="110.7" y1="38.1" x2="44.4" y2="76.3"/>
				<line class="st74" x1="110.7" y1="38.1" x2="44.4" y2="76.4"/>
				<line class="st75" x1="110.7" y1="38.2" x2="44.5" y2="76.4"/>
				<line class="st76" x1="110.7" y1="38.3" x2="44.6" y2="76.4"/>
				<line class="st77" x1="110.7" y1="38.4" x2="44.6" y2="76.5"/>
				<line class="st78" x1="110.7" y1="38.4" x2="44.7" y2="76.5"/>
				<line class="st79" x1="110.7" y1="38.5" x2="44.7" y2="76.5"/>
			</g>
			<g>
				<line class="st8" x1="110.8" y1="33.3" x2="262" y2="119.6"/>
				<line class="st9" x1="110.8" y1="33.4" x2="261.9" y2="119.6"/>
				<line class="st10" x1="110.8" y1="33.4" x2="261.9" y2="119.7"/>
				<line class="st11" x1="110.8" y1="33.5" x2="261.8" y2="119.7"/>
				<line class="st12" x1="110.8" y1="33.6" x2="261.7" y2="119.8"/>
				<line class="st13" x1="110.8" y1="33.7" x2="261.6" y2="119.8"/>
				<line class="st14" x1="110.8" y1="33.7" x2="261.6" y2="119.8"/>
				<line class="st15" x1="110.8" y1="33.8" x2="261.5" y2="119.9"/>
				<line class="st16" x1="110.8" y1="33.9" x2="261.4" y2="119.9"/>
				<line class="st17" x1="110.8" y1="33.9" x2="261.3" y2="120"/>
				<line class="st18" x1="110.8" y1="34" x2="261.3" y2="120"/>
				<line class="st19" x1="110.8" y1="34.1" x2="261.2" y2="120.1"/>
				<line class="st20" x1="110.8" y1="34.2" x2="261.1" y2="120.1"/>
				<line class="st21" x1="110.8" y1="34.2" x2="261" y2="120.1"/>
				<line class="st22" x1="110.8" y1="34.3" x2="261" y2="120.2"/>
				<line class="st23" x1="110.8" y1="34.4" x2="260.9" y2="120.2"/>
				<line class="st24" x1="110.8" y1="34.5" x2="260.8" y2="120.3"/>
				<line class="st25" x1="110.8" y1="34.5" x2="260.7" y2="120.3"/>
				<line class="st26" x1="110.8" y1="34.6" x2="260.7" y2="120.4"/>
				<line class="st27" x1="110.8" y1="34.7" x2="260.6" y2="120.4"/>
				<line class="st28" x1="110.8" y1="34.8" x2="260.5" y2="120.4"/>
				<line class="st29" x1="110.8" y1="34.8" x2="260.4" y2="120.5"/>
				<line class="st30" x1="110.8" y1="34.9" x2="260.4" y2="120.5"/>
				<line class="st31" x1="110.8" y1="35" x2="260.3" y2="120.6"/>
				<line class="st32" x1="110.8" y1="35" x2="260.2" y2="120.6"/>
				<line class="st33" x1="110.8" y1="35.1" x2="260.2" y2="120.7"/>
				<line class="st34" x1="110.8" y1="35.2" x2="260.1" y2="120.7"/>
				<line class="st35" x1="110.8" y1="35.3" x2="260" y2="120.7"/>
				<line class="st36" x1="110.8" y1="35.3" x2="259.9" y2="120.8"/>
				<line class="st37" x1="110.8" y1="35.4" x2="259.9" y2="120.8"/>
				<line class="st38" x1="110.8" y1="35.5" x2="259.8" y2="120.9"/>
				<line class="st39" x1="110.8" y1="35.6" x2="259.7" y2="120.9"/>
				<line class="st40" x1="110.8" y1="35.6" x2="259.6" y2="121"/>
				<line class="st40" x1="110.8" y1="35.7" x2="259.6" y2="121"/>
				<line class="st41" x1="110.8" y1="35.8" x2="259.5" y2="121"/>
				<line class="st42" x1="110.8" y1="35.8" x2="259.4" y2="121.1"/>
				<line class="st43" x1="110.8" y1="35.9" x2="259.3" y2="121.1"/>
				<line class="st44" x1="110.8" y1="36" x2="259.3" y2="121.2"/>
				<line class="st45" x1="110.8" y1="36.1" x2="259.2" y2="121.2"/>
				<line class="st46" x1="110.8" y1="36.1" x2="259.1" y2="121.3"/>
				<line class="st47" x1="110.8" y1="36.2" x2="259" y2="121.3"/>
				<line class="st48" x1="110.8" y1="36.3" x2="259" y2="121.3"/>
				<line class="st49" x1="110.8" y1="36.4" x2="258.9" y2="121.4"/>
				<line class="st50" x1="110.8" y1="36.4" x2="258.8" y2="121.4"/>
				<line class="st51" x1="110.8" y1="36.5" x2="258.8" y2="121.5"/>
				<line class="st52" x1="110.8" y1="36.6" x2="258.7" y2="121.5"/>
				<line class="st53" x1="110.8" y1="36.7" x2="258.6" y2="121.6"/>
				<line class="st54" x1="110.8" y1="36.7" x2="258.5" y2="121.6"/>
				<line class="st55" x1="110.8" y1="36.8" x2="258.5" y2="121.6"/>
				<line class="st56" x1="110.8" y1="36.9" x2="258.4" y2="121.7"/>
				<line class="st57" x1="110.8" y1="36.9" x2="258.3" y2="121.7"/>
				<line class="st58" x1="110.8" y1="37" x2="258.2" y2="121.8"/>
				<line class="st59" x1="110.8" y1="37.1" x2="258.2" y2="121.8"/>
				<line class="st60" x1="110.8" y1="37.2" x2="258.1" y2="121.8"/>
				<line class="st61" x1="110.8" y1="37.2" x2="258" y2="121.9"/>
				<line class="st62" x1="110.8" y1="37.3" x2="257.9" y2="121.9"/>
				<line class="st63" x1="110.8" y1="37.4" x2="257.9" y2="122"/>
				<line class="st64" x1="110.8" y1="37.5" x2="257.8" y2="122"/>
				<line class="st65" x1="110.8" y1="37.5" x2="257.7" y2="122.1"/>
				<line class="st66" x1="110.8" y1="37.6" x2="257.6" y2="122.1"/>
				<line class="st67" x1="110.8" y1="37.7" x2="257.6" y2="122.1"/>
				<line class="st68" x1="110.8" y1="37.7" x2="257.5" y2="122.2"/>
				<line class="st69" x1="110.8" y1="37.8" x2="257.4" y2="122.2"/>
				<line class="st70" x1="110.8" y1="37.9" x2="257.3" y2="122.3"/>
				<line class="st71" x1="110.8" y1="38" x2="257.3" y2="122.3"/>
				<line class="st72" x1="110.8" y1="38" x2="257.2" y2="122.4"/>
				<line class="st73" x1="110.8" y1="38.1" x2="257.1" y2="122.4"/>
				<line class="st74" x1="110.8" y1="38.2" x2="257.1" y2="122.4"/>
				<line class="st75" x1="110.8" y1="38.3" x2="257" y2="122.5"/>
				<line class="st76" x1="110.8" y1="38.3" x2="256.9" y2="122.5"/>
				<line class="st77" x1="110.8" y1="38.4" x2="256.8" y2="122.6"/>
				<line class="st78" x1="110.8" y1="38.5" x2="256.8" y2="122.6"/>
				<line class="st79" x1="110.8" y1="38.6" x2="256.7" y2="122.7"/>
			</g>
		</g>
		<line class="st80" x1="167.5" y1="147.8" x2="248.1" y2="102.1"/>
		<g>
			<path class="st81" d="M224.9,125.6c0.3,0.5,0.4,1,0.5,1.6c0.1,0.7-0.1,1.3-0.2,2c-0.1,0.4-0.4,0.9-0.4,1.3c0,0.1,0.2,0.4,0.3,0.6
				c0.2,0.4,0.5,0.6,0.7,0.9c0.1,0.1,0.1,0.3,0.1,0.4c0.3,0.4,0.7,0.6,0.8,1c0.1,0.4,0.1,0.9-0.1,1.3c-0.2,0.4-0.7,0.5-0.9,0.1
				c-0.2-0.4,0-1-0.3-1.5c-0.3-0.5-0.7-0.8-1-1.2c-0.3-0.3-0.5-0.6-0.7-0.9c-0.3-0.5,0-1.1-0.2-1.7c-0.2-0.6-0.8,0.2-1,0.4
				c-0.3,0.3-0.7,0.5-0.8,0.8c-0.2,0.4,0,1.3,0.1,1.8c0.2,0.7,0.7,1.1,0.9,1.7c-0.5,0.3-1,0.6-1.6,0.7c-0.3,0-0.7,0.1-0.7-0.2
				c-0.1-0.6,1-0.4,0.8-1.2c-0.2-0.9-0.9-1.6-1.1-2.6c-0.1-0.5-0.3-1,0-1.5c0.2-0.4,0.7-0.7,1-1.1c0.5-0.6,1.2-0.9,1.4-1.7
				c0.1-0.6,0-1.2-0.2-1.8c0.8,0,1.6,0,2.4,0C224.6,125.1,224.8,125.3,224.9,125.6z"/>
			<path class="st82" d="M220.4,121.7c-0.4-0.4-0.8-0.9-1.2-1.4c-0.1-0.2-1-1.2-0.9-1.4c0-0.1,0.2-0.1,0.2-0.2
				c-0.1-0.2-0.3-0.3-0.3-0.5c0.1-0.1,0.2,0.2,0.2,0.1c0-0.2,0-0.4,0-0.6c0.2,0,0.1-0.1,0.2-0.1c0,0.3,0.2,0.1,0.2,0.3
				c-0.4,1.7,1,1.9,1.8,2.7c0.2,0.2,0.2,0.4,0.4,0.5c0.2,0.2,0.3,0.2,0.5,0.3c0.3,0.3,0.4,0.6,0.8,0.5c0,0,0-0.8,0-0.8
				c0.2-0.5,1.1-0.5,1.4-0.1c0.2,0.3,0,0.8,0.3,1c0.1-0.2,0.3-0.3,0.4-0.5c0.1-0.2,0.1-0.4,0.1-0.5c0.1-0.4,0.3-0.7,0.2-1.1
				c-0.1-0.4-0.5-0.4-0.6-0.7c0.2-0.2,0.4,0.1,0.5,0.1c0.3-0.2-0.2-0.8,0.2-1c0.2,0.1,0,0.6,0.2,0.6c0.1-0.2,0-0.5,0.1-0.7
				c0.3,0.1,0,0.6,0.1,0.8c0.2-0.1,0.2-0.5,0.5-0.5c0,0.2-0.2,0.4-0.2,0.6c0.2,0,0.3-0.2,0.5-0.1c-0.1,0.2-0.3,0.2-0.4,0.4
				c-0.3,0.5-0.4,1.1-0.5,1.7c-0.1,0.6,0,1.1-0.2,1.7c-0.2,0.4-0.4,0.6-0.4,1.1c0,0.3,0,0.6,0,0.9c0,0,0,0,0,0.1c-0.8,0-1.6,0-2.4,0
				c-0.1-0.2-0.1-0.4-0.2-0.6C221.5,123.2,221.1,122.4,220.4,121.7z"/>
		</g>
		<g>
			<path class="st81" d="M79,51.7c-0.3,0.5-0.4,1-0.5,1.6c-0.1,0.7,0.1,1.3,0.2,2c0.1,0.4,0.4,0.9,0.4,1.3c0,0.1-0.2,0.4-0.3,0.6
				c-0.2,0.4-0.5,0.6-0.7,0.9c-0.1,0.1-0.1,0.3-0.1,0.4c-0.3,0.4-0.7,0.6-0.8,1c-0.1,0.4-0.1,0.9,0.1,1.3c0.2,0.4,0.7,0.5,0.9,0.1
				c0.2-0.4,0-1,0.3-1.5c0.3-0.5,0.7-0.8,1-1.2c0.3-0.3,0.5-0.6,0.7-0.9c0.3-0.5,0-1.1,0.2-1.7c0.2-0.6,0.8,0.2,1,0.4
				c0.3,0.3,0.7,0.5,0.8,0.8c0.2,0.4,0,1.3-0.1,1.8c-0.2,0.7-0.7,1.1-0.9,1.7c0.5,0.3,1,0.6,1.6,0.7c0.3,0,0.7,0.1,0.7-0.2
				c0.1-0.6-1-0.4-0.8-1.2c0.2-0.9,0.9-1.6,1.1-2.6c0.1-0.5,0.3-1,0-1.5c-0.2-0.4-0.7-0.7-1-1.1c-0.5-0.6-1.2-0.9-1.4-1.7
				c-0.1-0.6,0-1.2,0.2-1.8c-0.8,0-1.6,0-2.4,0C79.3,51.2,79.2,51.4,79,51.7z"/>
			<path class="st82" d="M83.6,47.8c0.4-0.4,0.8-0.9,1.2-1.4c0.1-0.2,1-1.2,0.9-1.4c0-0.1-0.2-0.1-0.2-0.2c0.1-0.2,0.3-0.3,0.3-0.5
				c-0.1-0.1-0.2,0.2-0.2,0.1c0-0.2,0-0.4,0-0.6c-0.2,0-0.1-0.1-0.2-0.1c0,0.3-0.2,0.1-0.2,0.3c0.4,1.7-1,1.9-1.8,2.7
				c-0.2,0.2-0.2,0.4-0.4,0.5c-0.2,0.2-0.3,0.2-0.5,0.3c-0.3,0.3-0.4,0.6-0.8,0.5c0,0,0-0.8,0-0.8c-0.2-0.5-1.1-0.5-1.4-0.1
				c-0.2,0.3,0,0.8-0.3,1c-0.1-0.2-0.3-0.3-0.4-0.5c-0.1-0.2-0.1-0.4-0.1-0.5c-0.1-0.4-0.3-0.7-0.2-1.1c0.1-0.4,0.5-0.4,0.6-0.7
				c-0.2-0.2-0.4,0.1-0.5,0.1c-0.3-0.2,0.2-0.9-0.2-1c-0.2,0.1,0,0.6-0.2,0.6c-0.1-0.2,0-0.5-0.1-0.7c-0.3,0.1,0,0.6-0.1,0.8
				c-0.2-0.1-0.2-0.5-0.5-0.5c0,0.2,0.2,0.4,0.2,0.6c-0.2,0-0.3-0.2-0.5-0.1c0.1,0.2,0.3,0.2,0.4,0.4c0.3,0.5,0.4,1.1,0.5,1.7
				c0.1,0.6,0,1.1,0.2,1.7c0.2,0.4,0.4,0.6,0.4,1.1c0,0.3,0,0.6,0,0.9c0,0,0,0,0,0.1c0.8,0,1.6,0,2.4,0c0.1-0.2,0.1-0.4,0.2-0.6
				C82.4,49.3,82.9,48.5,83.6,47.8z"/>
		</g>
		<line class="st80" x1="50.8" y1="80.8" x2="132.6" y2="35.9"/>
		<g>
			<path class="st81" d="M105.5,47.2c0,1.7-1.1,3-0.6,5c1.2,0.8,1.5-1.2,2.3-1.6c0.2,1.2-0.1,2.5-0.1,3.6c0,1-0.4,1.6-0.5,2.3
				c0.3,0.1,0.7,0.1,0.9-0.1c-0.3-1.3,0.4-2.2,0.6-3.4c0.1-0.9-0.2-1.8,0.3-2.5c0.1,0,0.3,0.1,0.4,0c0-0.4-0.2-0.5-0.3-0.8
				c0.3-1,0-2-0.1-2.9c-1,0-1.9,0-2.9,0C105.5,46.9,105.5,47,105.5,47.2z M106.9,49c0.2,0.5-0.1,1-0.3,1.3
				C106.4,49.8,106.7,49.4,106.9,49z"/>
			<path class="st82" d="M112.4,45.9c-0.3-0.1-0.5,0.2-0.6,0.1c0.2-0.1,0.6-0.1,0.6-0.4c-0.3,0-0.4,0.1-0.6,0.2
				c0-0.2,0.3-0.2,0.3-0.4c-0.2-0.1-0.3,0.4-0.4,0.2c0.1,0,0.1-0.2,0-0.2c-0.1,0.1-0.1,0.2-0.2,0.3c-1.1-1-2-2.1-3.6-2.5
				c0.1-0.2,0.2-0.3,0.3-0.6c-0.1,0-0.2,0-0.2-0.1c0.3-1.6-2.2-0.9-1.4,0.6c-1.1,0.1-1.6,0.9-2.2,1.6c-0.7,0.9-1.4,2-0.6,2.7
				c0.2-0.1-0.1-0.2,0.1-0.3c0.1,0,0.2,0.3,0.3,0.1c-0.5-1.2,0.7-2,1.4-2.5c0.1,0.7,0.2,1.3,0.2,2c0.9,0,1.9,0,2.9,0
				c0-0.2,0-0.4,0-0.6c0.3-0.4,0.3-1,0.3-1.4c1.4,0.1,2.1,1.3,3.1,2c0.1-0.3-0.3-0.2-0.3-0.6C111.8,46.1,112.3,46.2,112.4,45.9z"/>
		</g>
		<g>
			<path class="st81" d="M172.3,88.9c0,1.7-1.1,3-0.6,5c1.2,0.8,1.5-1.2,2.3-1.6c0.2,1.2-0.1,2.5-0.1,3.6c0,1-0.4,1.6-0.5,2.3
				c0.3,0.1,0.7,0.1,0.9-0.1c-0.3-1.2,0.4-2.2,0.6-3.4c0.1-0.9-0.2-1.8,0.3-2.5c0.1,0,0.3,0.1,0.4,0c0-0.4-0.2-0.5-0.3-0.8
				c0.3-1,0-2-0.1-2.9c-1,0-1.9,0-2.9,0C172.3,88.7,172.3,88.8,172.3,88.9z M173.7,90.8c0.2,0.5-0.1,1-0.3,1.3
				C173.2,91.6,173.6,91.2,173.7,90.8z"/>
			<path class="st82" d="M179.2,87.7c-0.3-0.1-0.5,0.2-0.6,0.1c0.2-0.1,0.6-0.1,0.6-0.4c-0.2,0-0.4,0.1-0.6,0.2
				c0-0.2,0.3-0.2,0.3-0.4c-0.2-0.1-0.3,0.4-0.4,0.2c0.1,0,0.1-0.2,0-0.2c-0.1,0.1-0.1,0.2-0.2,0.3c-1.1-1-2-2.1-3.6-2.5
				c0.1-0.2,0.2-0.3,0.3-0.6c-0.1,0-0.2,0-0.2-0.1c0.3-1.6-2.2-0.9-1.4,0.6c-1.1,0.1-1.6,0.9-2.2,1.6c-0.7,0.9-1.4,2-0.6,2.7
				c0.2-0.1-0.1-0.2,0.1-0.3c0.1,0,0.2,0.3,0.3,0.1c-0.5-1.2,0.7-2,1.4-2.5c0.1,0.7,0.2,1.3,0.2,2c0.9,0,1.9,0,2.9,0
				c0-0.2,0-0.4,0-0.6c0.3-0.4,0.3-1,0.3-1.4c1.4,0.1,2.1,1.3,3.1,2c0.1-0.3-0.3-0.2-0.3-0.6C178.7,87.9,179.1,88,179.2,87.7z"/>
		</g>
		<polygon class="st83" points="190.3,160.8 270.5,114.8 110.7,22.6 30.5,68.6 		"/>
		<g>
			<polyline class="st83" points="90.7,34.7 84.6,31.1 65.3,42.7 65,53.7 71,57.2 71.3,46.3 90.7,34.7 90.5,46.1 90.5,46.1 
				84.4,42.5 71.3,50 			"/>
			<line class="st83" x1="65.3" y1="42.7" x2="71.3" y2="46.3"/>
			<g>
				<line class="st84" x1="89.7" y1="35.3" x2="89.5" y2="45.3"/>
				<line class="st84" x1="88.7" y1="36" x2="88.5" y2="44.8"/>
				<line class="st84" x1="87.6" y1="36.5" x2="87.5" y2="44.3"/>
				<line class="st84" x1="86.6" y1="37.2" x2="86.4" y2="43.7"/>
				<line class="st84" x1="85.5" y1="37.8" x2="85.4" y2="43"/>
				<line class="st83" x1="84.5" y1="38.4" x2="84.4" y2="42.5"/>
				<line class="st84" x1="83.5" y1="38.9" x2="83.4" y2="43"/>
				<line class="st84" x1="82.7" y1="39.4" x2="82.7" y2="43.5"/>
				<line class="st84" x1="81.8" y1="39.9" x2="81.8" y2="44"/>
				<line class="st84" x1="80.9" y1="40.4" x2="80.8" y2="44.5"/>
				<line class="st84" x1="79.9" y1="41.2" x2="79.8" y2="45.3"/>
				<line class="st84" x1="79" y1="41.7" x2="78.9" y2="45.9"/>
				<line class="st84" x1="78" y1="42.2" x2="78" y2="46.4"/>
				<line class="st84" x1="77.1" y1="42.8" x2="77.1" y2="46.9"/>
				<line class="st84" x1="76" y1="43.4" x2="76" y2="47.5"/>
				<line class="st84" x1="74.8" y1="44" x2="74.7" y2="48.1"/>
				<line class="st84" x1="73.7" y1="44.8" x2="73.7" y2="49"/>
				<line class="st84" x1="72.8" y1="45.4" x2="72.7" y2="49.5"/>
				<line class="st84" x1="70.2" y1="45.5" x2="70" y2="56.7"/>
				<line class="st84" x1="69.2" y1="44.9" x2="69" y2="56.1"/>
				<line class="st84" x1="68.2" y1="44.2" x2="68" y2="55.4"/>
				<line class="st84" x1="67.2" y1="43.5" x2="67" y2="54.7"/>
				<line class="st84" x1="66.1" y1="43" x2="66" y2="54.2"/>
				<line class="st84" x1="65.2" y1="43.9" x2="71.3" y2="47.5"/>
				<line class="st84" x1="65.2" y1="45.2" x2="71.3" y2="48.8"/>
				<line class="st84" x1="65.2" y1="46.4" x2="71.3" y2="50"/>
				<line class="st84" x1="65.2" y1="47.7" x2="71.3" y2="51.3"/>
				<line class="st84" x1="65.2" y1="48.9" x2="71.2" y2="52.5"/>
				<line class="st84" x1="65.1" y1="50.2" x2="71.2" y2="53.8"/>
				<line class="st84" x1="65.1" y1="51.4" x2="71.2" y2="55"/>
				<line class="st84" x1="65.1" y1="52.6" x2="71.2" y2="56.2"/>
				<line class="st84" x1="66" y1="42.1" x2="72.1" y2="45.7"/>
				<line class="st84" x1="67" y1="41.6" x2="73" y2="45.2"/>
				<line class="st84" x1="67.8" y1="40.9" x2="73.9" y2="44.5"/>
				<line class="st84" x1="68.9" y1="40.4" x2="75" y2="44"/>
				<line class="st84" x1="69.7" y1="39.9" x2="75.8" y2="43.5"/>
				<line class="st84" x1="70.5" y1="39.3" x2="76.6" y2="42.9"/>
				<line class="st84" x1="71.6" y1="38.7" x2="77.7" y2="42.3"/>
				<line class="st84" x1="72.5" y1="38.2" x2="78.6" y2="41.8"/>
				<line class="st84" x1="73.4" y1="37.6" x2="79.5" y2="41.2"/>
				<line class="st84" x1="74.3" y1="37" x2="80.4" y2="40.6"/>
				<line class="st84" x1="75.5" y1="36.5" x2="81.6" y2="40.1"/>
				<line class="st84" x1="76.4" y1="35.9" x2="82.5" y2="39.5"/>
				<line class="st84" x1="77.5" y1="35.3" x2="83.6" y2="38.9"/>
				<line class="st84" x1="78.6" y1="34.6" x2="84.7" y2="38.2"/>
				<line class="st84" x1="79.8" y1="33.9" x2="85.9" y2="37.5"/>
				<line class="st84" x1="80.6" y1="33.3" x2="86.7" y2="36.9"/>
				<line class="st84" x1="81.7" y1="32.7" x2="87.8" y2="36.3"/>
				<line class="st84" x1="82.7" y1="32.1" x2="88.8" y2="35.7"/>
				<line class="st84" x1="83.8" y1="31.6" x2="89.8" y2="35.2"/>
				<path class="st84" d="M70.2,45.5"/>
				<line class="st84" x1="89.7" y1="34.2" x2="70.3" y2="45.8"/>
				<line class="st84" x1="88.6" y1="33.4" x2="69.3" y2="45"/>
				<line class="st84" x1="87.6" y1="32.7" x2="68.2" y2="44.3"/>
				<line class="st84" x1="86.7" y1="32.1" x2="67.3" y2="43.7"/>
				<line class="st84" x1="85.6" y1="31.4" x2="66.2" y2="43"/>
				<line class="st84" x1="84.4" y1="41.5" x2="71.3" y2="49.1"/>
				<line class="st84" x1="84.5" y1="40" x2="71.3" y2="47.6"/>
				<line class="st84" x1="90.6" y1="45" x2="84.6" y2="41.5"/>
				<line class="st84" x1="84.6" y1="40.4" x2="90.6" y2="43.9"/>
				<line class="st84" x1="84.6" y1="39.2" x2="90.6" y2="42.8"/>
				<line class="st84" x1="85" y1="38.1" x2="90.6" y2="41.4"/>
				<line class="st84" x1="86.2" y1="37.4" x2="90.6" y2="40"/>
				<line class="st84" x1="87" y1="36.6" x2="90.7" y2="38.6"/>
				<line class="st84" x1="88.7" y1="36" x2="90.7" y2="37.1"/>
			</g>
		</g>
		<g>
			<path class="st82" d="M115.9,53.4c-0.1,0-0.1,0-0.1-0.1c0,0.1-0.2,0-0.1,0.1c-0.6,0-1,0-1.5-0.1c-0.4-0.1-1.1-0.1-1.5-0.1
				c-0.1,0.1-0.1,0.2-0.1,0.3c-0.1,0-0.2-0.2-0.1-0.3c-0.1,0-0.1-0.1-0.1-0.1c-0.1,0.1,0,0.3-0.1,0.3c-0.1-0.1,0-0.4-0.3-0.4
				c0,0.2-0.1,0-0.1,0.2c-0.1,0,0-0.1-0.1-0.1c0,0,0.2-0.4,0.3-0.4c0.2-0.1,0.6-0.1,0.8-0.2c1-0.2,2.1,0.2,3-0.2
				c0.2-0.1,0.3-0.4,0.6-0.5c0.1,0,0.7-0.2,0.7-0.2c0,0,0-0.1,0-0.1c-0.2,0.1-0.2-0.2-0.3-0.1c0.1-0.4,0.2-0.7,0.2-1
				c0-0.1,0.2-0.2,0.2-0.5c0.2-0.1,0.1-0.1,0.2-0.2c0,0-0.1-0.1-0.1-0.1c0.3-0.3,0.9-0.3,1.2-0.1c0.1,0.1,0.3,0.4,0.3,0.5
				c0.1,0.7-0.6,0.8-0.6,1.3c0,0.4,0.6,0.3,0.8,0.3c0.3,0,0.7,0.3,1,0.2c-0.1-0.5,0.3-1.1-0.2-1.5c-0.4-0.3-0.6-0.3-0.6-0.9
				c0-0.2,0.1-0.4,0.3-0.5c0.2-0.2,0.6-0.2,0.8,0c0.2,0.1,0.4,0.4,0.4,0.6c0,0.3-0.2,0.5-0.2,0.7c0,0.7,0.3,1.3,0.2,2
				c-0.1,0.9-1.3,0.5-1.9,1c-0.4,0.3-0.7,0.8-0.9,1.3c-0.9-0.1-1.7-0.1-2.5-0.2C115.8,54.2,115.7,53.4,115.9,53.4z"/>
			<path class="st81" d="M111.3,57.8c0.5-0.1,0.9,0,1.1-0.6c0.2-0.4,0.3-0.8,0.4-1.2c0-0.3-0.1-0.5,0.2-0.7c0.3-0.2,0.8-0.2,1.1-0.2
				c0.3,0,0.5,0,0.8,0c0.2,0,0.6,0.1,0.8,0c0.1,0,0.1-0.2,0.1-0.3c0.8,0.1,1.6,0.1,2.5,0.2c0,0,0,0,0,0c-0.2,0.6-0.1,1,0.1,1.6
				c0.1,0.5,0.1,1.3,0.1,1.8c0,0.7-0.1,1.5,0,2.2c0,0.3,0.1,0.3,0.3,0.6c0.2,0.3,0.2,0.5,0.2,0.8c0,0.4,0,0.7,0,1
				c0.1,0.4,0,0.6-0.4,0.8c-0.5,0.2-1.3,0.5-1.8,0.3c0.1-0.7,0.8-0.7,1.2-1.1c0.4-0.4-0.2-0.9-0.3-1.3c-0.2-0.6-0.3-1-0.4-1.6
				c0-0.4-0.2-0.4-0.4-0.7c-0.6-0.8-0.2-1.8-0.6-2.7c-0.3,0.1-0.7,0.1-1,0.1c-0.2,0-0.5,0-0.7-0.1c-0.2-0.1-0.4-0.3-0.7-0.3
				c-0.1,0.2,0,0.4-0.2,0.4c0,0.1-0.6,0.9-0.5,0.9c0,0-0.1,0-0.1,0.1c0.1,0.2,0.5,0.8,0.3,1.1c-0.6,0.3-0.9-0.3-1.3-0.2
				c0,0,0.1,0,0.1,0c-0.2,0-0.5,0-0.7,0c-0.1,0-0.5-0.3-0.5-0.4C110.8,57.8,111,57.8,111.3,57.8z"/>
		</g>
		<g>
			<polyline class="st83" points="239.8,116.2 233.7,112.6 214.3,124.2 214,135.2 220.1,138.8 220.4,127.8 239.8,116.2 239.6,127.6 
				239.5,127.8 233.4,131.3 220.3,138.8 			"/>
			<line class="st83" x1="214.3" y1="124.2" x2="220.4" y2="127.8"/>
			<g>
				<line class="st84" x1="232.5" y1="120.5" x2="232.4" y2="131.2"/>
				<line class="st84" x1="231.8" y1="121" x2="231.6" y2="131.7"/>
				<line class="st84" x1="230.9" y1="121.5" x2="230.7" y2="132.3"/>
				<line class="st84" x1="230" y1="122" x2="229.8" y2="132.8"/>
				<line class="st84" x1="229" y1="122.8" x2="228.8" y2="133.5"/>
				<line class="st84" x1="228.1" y1="123.3" x2="227.9" y2="134.1"/>
				<line class="st84" x1="227.1" y1="123.8" x2="226.9" y2="134.6"/>
				<line class="st84" x1="238.7" y1="117" x2="238.5" y2="127.8"/>
				<line class="st84" x1="238" y1="117.5" x2="237.8" y2="128.3"/>
				<line class="st84" x1="237.1" y1="118" x2="236.9" y2="128.8"/>
				<line class="st84" x1="236.2" y1="118.5" x2="236" y2="129.3"/>
				<line class="st84" x1="235.1" y1="119.3" x2="235" y2="130.1"/>
				<line class="st84" x1="234.3" y1="119.9" x2="234.1" y2="130.6"/>
				<line class="st84" x1="233.3" y1="120.4" x2="233.1" y2="131.1"/>
				<line class="st84" x1="226.2" y1="124.4" x2="226" y2="135.1"/>
				<line class="st84" x1="225.1" y1="125" x2="224.9" y2="135.7"/>
				<line class="st84" x1="223.9" y1="125.6" x2="223.7" y2="136.3"/>
				<line class="st84" x1="222.8" y1="126.5" x2="222.6" y2="137.2"/>
				<line class="st84" x1="221.9" y1="127" x2="221.7" y2="137.8"/>
				<line class="st84" x1="219.2" y1="127.1" x2="219" y2="138.3"/>
				<line class="st84" x1="218.3" y1="126.4" x2="218.1" y2="137.6"/>
				<line class="st84" x1="217.2" y1="125.7" x2="217" y2="136.9"/>
				<line class="st84" x1="216.3" y1="125.1" x2="216.1" y2="136.3"/>
				<line class="st84" x1="215.2" y1="124.5" x2="215" y2="135.7"/>
				<line class="st84" x1="214.3" y1="125.5" x2="220.4" y2="129.1"/>
				<line class="st84" x1="214.3" y1="126.7" x2="220.4" y2="130.3"/>
				<line class="st84" x1="214.3" y1="128" x2="220.3" y2="131.6"/>
				<line class="st84" x1="214.2" y1="129.2" x2="220.3" y2="132.8"/>
				<line class="st84" x1="214.2" y1="130.5" x2="220.3" y2="134.1"/>
				<line class="st84" x1="214.2" y1="131.7" x2="220.3" y2="135.3"/>
				<line class="st84" x1="214.2" y1="132.9" x2="220.3" y2="136.5"/>
				<line class="st84" x1="214.2" y1="134.2" x2="220.2" y2="137.8"/>
				<line class="st84" x1="215.1" y1="123.7" x2="221.2" y2="127.3"/>
				<line class="st84" x1="216" y1="123.1" x2="222.1" y2="126.7"/>
				<line class="st84" x1="216.8" y1="122.5" x2="222.9" y2="126.1"/>
				<line class="st84" x1="217.9" y1="122" x2="224" y2="125.6"/>
				<line class="st84" x1="218.8" y1="121.4" x2="224.9" y2="125"/>
				<line class="st84" x1="219.6" y1="120.8" x2="225.7" y2="124.4"/>
				<line class="st84" x1="220.7" y1="120.2" x2="226.7" y2="123.8"/>
				<line class="st84" x1="221.6" y1="119.7" x2="227.6" y2="123.3"/>
				<line class="st84" x1="222.5" y1="119.2" x2="228.6" y2="122.8"/>
				<line class="st84" x1="223.4" y1="118.6" x2="229.5" y2="122.2"/>
				<line class="st84" x1="224.6" y1="118.1" x2="230.7" y2="121.7"/>
				<line class="st84" x1="225.5" y1="117.4" x2="231.6" y2="121"/>
				<line class="st84" x1="226.6" y1="116.9" x2="232.7" y2="120.5"/>
				<line class="st84" x1="227.7" y1="116.2" x2="233.8" y2="119.7"/>
				<line class="st84" x1="228.8" y1="115.5" x2="234.9" y2="119.1"/>
				<line class="st84" x1="229.7" y1="114.9" x2="235.7" y2="118.5"/>
				<line class="st84" x1="230.8" y1="114.2" x2="236.9" y2="117.8"/>
				<line class="st84" x1="231.8" y1="113.6" x2="237.9" y2="117.2"/>
				<line class="st84" x1="232.8" y1="113.1" x2="238.9" y2="116.7"/>
				<path class="st84" d="M219.2,127.1"/>
				<line class="st84" x1="238.8" y1="115.7" x2="219.4" y2="127.3"/>
				<line class="st84" x1="237.7" y1="114.9" x2="218.3" y2="126.5"/>
				<line class="st84" x1="236.7" y1="114.3" x2="217.3" y2="125.9"/>
				<line class="st84" x1="235.7" y1="113.6" x2="216.4" y2="125.2"/>
				<line class="st84" x1="234.6" y1="112.9" x2="215.3" y2="124.5"/>
				<line class="st84" x1="239.6" y1="119.7" x2="220.4" y2="130.6"/>
				<line class="st84" x1="239.5" y1="121" x2="220.3" y2="131.9"/>
				<line class="st84" x1="239.5" y1="122.3" x2="220.3" y2="133.2"/>
				<line class="st84" x1="239.5" y1="123.5" x2="220.3" y2="134.5"/>
				<line class="st84" x1="239.5" y1="124.8" x2="220.3" y2="135.8"/>
				<line class="st84" x1="239.4" y1="126.1" x2="220.3" y2="137.1"/>
				<line class="st84" x1="239.6" y1="118.2" x2="220.4" y2="129.2"/>
			</g>
		</g>
		<polygon class="st85" points="120,27.9 90.7,44.4 90.6,45.4 120.7,28.3 		"/>
		<polygon class="st85" points="70,56.7 39.9,73.7 40.8,74.2 70.9,57.2 		"/>
		<polygon class="st85" points="115.4,25.2 90.7,39.2 90.5,38.3 114.2,24.7 		"/>
		<polygon class="st85" points="65,53.8 34.8,71.2 35.6,71.7 65.8,54.3 		"/>
		<polygon class="st85" points="239.8,121.7 261,109.4 260.3,108.8 239.7,120.4 		"/>
		<polygon class="st85" points="180.2,155.1 214.6,135.8 214,135.2 179.6,154.5 		"/>
		<line class="st86" x1="107.3" y1="112.6" x2="189.1" y2="67.7"/>
		<line class="st87" x1="154.5" y1="140.2" x2="236.3" y2="95.3"/>
		<line class="st87" x1="65.2" y1="88.1" x2="147.1" y2="43.1"/>
		<polygon class="st85" points="239.6,127.6 266.6,112.6 265.7,112.1 239.7,126.4 		"/>
		<polygon class="st85" points="185.9,158.3 220.1,138.8 219.2,138.1 184.9,157.5 		"/>
		<polygon class="st85" points="106.3,25.3 266.2,117 265.1,117.6 105.2,25.9 		"/>
		<polygon class="st85" points="37.6,64.8 36.5,65.4 196.4,157.1 197.5,156.5 		"/>
		<g>
			<path class="st81" d="M89.5,62.2c0,0.2-0.1,0.3-0.2,0.5c-0.1,0.3-0.2,0.5-0.3,0.7c-0.3,0.6-0.4,1.3-0.8,1.6
				c-0.3,0.2-0.7,0.3-0.9,0.6c-0.2,0.2-0.2,0.5-0.4,0.8c-0.1,0.2-0.5,0.6-0.7,0.8c-0.4,0.4-1.1,0.7-1.4,1.2c-0.2,0.3-0.3,0.9,0.1,1
				c0.5,0.1,0.8-0.7,1.1-0.9c0.1-0.1,0.2-0.1,0.3-0.2c0.1-0.1,0.1-0.3,0.2-0.4c0.4-0.5,1-0.8,1.6-1c0.2-0.1,0.4-0.4,0.7-0.5
				c0.2-0.2,0.5-0.2,0.7-0.4c0.2-0.1,0.4-0.5,0.6-0.6c0.7-0.3,1.5,0.1,1.5,0.7c0.1,0.8-0.7,1.2-0.8,1.8c-0.1,0.3,0,0.6-0.1,0.8
				c-0.1,0.1-0.1,0.1-0.2,0.2c-0.1,0.1-0.1,0.3-0.2,0.4c0,0.1-0.1,0.1-0.1,0.2c0,0.1,0,0.1,0,0.2c-0.1,0.2-0.1,0.3-0.2,0.5
				c-0.1,0.2-0.2,0.2-0.3,0.3c-0.2,0.3-0.1,0.7,0.3,0.8c0.6,0.2,1.2,0.2,1.8,0.2c0.2,0,0.4,0,0.6,0c0.2,0,0.3-0.2,0.1-0.3
				c-0.1-0.1-0.3,0-0.4-0.1c-0.1,0-0.2-0.1-0.4-0.1c-0.2,0-0.3-0.1-0.5-0.1c-0.2-0.1-0.2-0.1-0.2-0.3c0-0.2,0.1-0.3,0.2-0.5
				c0.1-0.2,0.2-0.4,0.3-0.5c0.2-0.4,0.4-0.7,0.7-1.1c0.2-0.3,0.4-0.7,0.5-1.1c0.1-0.2,0.1-0.4,0.2-0.6c0-0.2,0.1-0.3,0.1-0.5
				c0-0.1,0-0.3,0-0.4c0-0.2,0.1-0.4,0-0.6c0-0.4,0-0.8-0.2-1.1c-0.1-0.2-0.2-0.4-0.3-0.7c-0.1-0.4-0.1-0.9-0.1-1.3
				c0-0.1,0-0.2,0-0.2C91.4,62.2,90.5,62.3,89.5,62.2z"/>
			<path class="st82" d="M92.5,59.4c0.2-0.2,0.3-0.4,0.5-0.5c0.2-0.1,0.4-0.2,0.6-0.3c0.3-0.3,0.8-0.6,1.1-0.9
				c0.3-0.3,0.5-0.8,0.8-1c0.3-0.2,0.7-0.2,0.9-0.5c-0.1-0.1-0.4,0.1-0.5,0c0.2-0.1,0.4-0.1,0.4-0.4c-0.1,0-0.3,0.1-0.5,0.2
				c0.1-0.2,0.3-0.2,0.4-0.4c-0.2-0.1-0.4,0.3-0.6,0.2c0.1-0.2,0.3-0.2,0.3-0.4c-0.4,0-0.5,0.3-0.7,0.4c-0.2,0.7-0.7,0.9-1.2,1.2
				c-0.3,0.2-0.4,0.5-0.6,0.7c-0.1,0.1-0.2,0.1-0.3,0.2c-0.6,0.4-1.2,0.9-2,1.1c0-0.4,0.4-1.1,0.2-1.6c-0.2-0.6-1.3-0.5-1.5,0.1
				c-0.1,0.4,0,0.8,0.1,1.2c0,0.1,0.1,0.3,0,0.5c-0.1,0.1-0.3,0.1-0.4,0.3c-0.1,0.1-0.1,0.2-0.2,0.2c-0.1,0-0.3,0.1-0.4,0.2
				c-0.1,0.1-0.2,0.2-0.3,0.2c-0.1,0.1-0.1,0.2-0.2,0.2c-0.1,0.1-0.1,0.1-0.2,0.2c-0.1,0.1-0.1,0.2-0.2,0.3
				c-0.1,0.2-0.3,0.3-0.5,0.4c-0.2,0.1-0.4,0.3-0.5,0.4c-0.6,0.5-0.9,1.3-1.5,1.6c-0.1,0.1-0.3,0.1-0.5,0.2
				c-0.3,0.2-0.5,0.7-0.1,0.9c0.2,0,0.1-0.3,0.2-0.3c0,0.1-0.2,0.3,0,0.4c0.2-0.1,0.2-0.3,0.3-0.4c0.1-0.1,0.2-0.1,0.3-0.1
				c0.2-0.1,0.3-0.3,0.4-0.4c0.3-0.2,0.6-0.4,0.9-0.7c0.2-0.2,0.5-0.4,0.7-0.7c0.1-0.1,0.1-0.2,0.2-0.2c0.1-0.1,0.3-0.1,0.4-0.2
				c0.1-0.1,0.2-0.2,0.3-0.4c0.1-0.1,0.2-0.2,0.3-0.2c0.1,0,0.2-0.1,0.2-0.1c0.1,0.3,0.2,0.6,0.2,1c0,0.1,0,0.2,0,0.3
				c1,0.1,1.9,0,2.9-0.2c-0.1-0.4-0.1-0.8-0.1-1.1C92.2,60.5,92.1,59.8,92.5,59.4z"/>
		</g>
		<g>
			<path class="st81" d="M186.9,125.7c0,0.2-0.1,0.3-0.2,0.5c-0.1,0.3-0.2,0.5-0.3,0.7c-0.3,0.6-0.4,1.3-0.8,1.6
				c-0.3,0.2-0.6,0.3-0.9,0.6c-0.2,0.2-0.2,0.5-0.4,0.8c-0.1,0.2-0.5,0.6-0.7,0.8c-0.4,0.4-1.1,0.7-1.4,1.2c-0.2,0.3-0.3,0.9,0.1,1
				c0.5,0.1,0.8-0.7,1.1-0.9c0.1-0.1,0.2-0.1,0.3-0.2c0.1-0.1,0.1-0.3,0.2-0.4c0.4-0.5,0.9-0.8,1.6-1c0.2-0.1,0.4-0.4,0.7-0.5
				c0.2-0.2,0.5-0.2,0.7-0.4c0.2-0.1,0.4-0.5,0.6-0.6c0.7-0.3,1.5,0.1,1.5,0.7c0.1,0.8-0.7,1.2-0.8,1.8c-0.1,0.3,0,0.6-0.1,0.8
				c-0.1,0.1-0.1,0.1-0.2,0.2c-0.1,0.1-0.1,0.3-0.2,0.4c0,0.1-0.1,0.1-0.1,0.2c0,0.1,0,0.1,0,0.2c-0.1,0.2-0.1,0.3-0.2,0.5
				c-0.1,0.2-0.2,0.2-0.3,0.3c-0.2,0.3-0.1,0.7,0.3,0.8c0.6,0.2,1.2,0.2,1.8,0.2c0.2,0,0.4,0,0.6,0c0.2,0,0.3-0.2,0.1-0.3
				c-0.1-0.1-0.3,0-0.4-0.1c-0.1,0-0.2-0.1-0.4-0.1c-0.2,0-0.3-0.1-0.5-0.1c-0.2-0.1-0.2-0.1-0.2-0.3c0-0.2,0.1-0.3,0.2-0.5
				c0.1-0.2,0.2-0.4,0.3-0.5c0.2-0.4,0.4-0.7,0.7-1.1c0.2-0.3,0.4-0.7,0.5-1.1c0.1-0.2,0.1-0.4,0.2-0.6c0-0.2,0.1-0.3,0.1-0.5
				c0-0.1,0-0.3,0-0.4c0-0.2,0.1-0.4,0-0.6c0-0.4,0-0.8-0.2-1.1c-0.1-0.2-0.2-0.4-0.3-0.7c-0.1-0.4-0.1-0.9-0.1-1.3
				c0-0.1,0-0.2,0-0.2C188.9,125.7,187.9,125.8,186.9,125.7z"/>
			<path class="st82" d="M190.1,122.8c-0.5-0.1-1-0.1-1.5-0.2c0-0.5,0.3-1.1,0.1-1.6c-0.2-0.6-1.3-0.5-1.5,0.1
				c-0.1,0.4,0,0.8,0.1,1.2c0,0.1,0.1,0.3,0,0.5c-0.1,0.1-0.3,0.1-0.4,0.3c-0.1,0.1-0.1,0.2-0.2,0.2c-0.1,0-0.3,0.1-0.4,0.2
				c-0.1,0.1-0.2,0.2-0.3,0.2c-0.1,0.1-0.1,0.2-0.2,0.2c-0.1,0.1-0.1,0.1-0.2,0.2c-0.1,0.1-0.1,0.2-0.2,0.3
				c-0.1,0.2-0.3,0.3-0.5,0.4c-0.2,0.1-0.4,0.3-0.5,0.4c-0.6,0.5-0.9,1.3-1.5,1.6c-0.1,0.1-0.3,0.1-0.5,0.2
				c-0.3,0.2-0.5,0.7-0.1,0.9c0.2,0,0.1-0.3,0.2-0.3c0,0.1-0.2,0.3,0,0.4c0.2-0.1,0.2-0.3,0.3-0.4c0.1-0.1,0.2-0.1,0.3-0.1
				c0.2-0.1,0.3-0.3,0.4-0.4c0.3-0.2,0.6-0.4,0.9-0.7c0.2-0.2,0.5-0.4,0.7-0.7c0.1-0.1,0.1-0.2,0.2-0.2c0.1-0.1,0.3-0.1,0.4-0.2
				c0.1-0.1,0.2-0.2,0.3-0.4c0.1-0.1,0.2-0.2,0.3-0.2c0.1,0,0.2-0.1,0.2-0.1c0.1,0.3,0.2,0.6,0.2,1c0,0.1,0,0.2,0,0.3
				c0.9,0,1.9,0,2.8-0.2c0,0,0-1.1,0.3-1.3c0.4-0.3,0.9,0,1.3,0.2c1,0.3,2,0.8,2.9,1.4c-0.2-0.2-0.1-0.6-0.3-0.8
				c-0.2-0.3-0.6-0.3-0.9-0.5C192.2,123.8,191.1,122.9,190.1,122.8z"/>
		</g>
		<g>
			<path class="st81" d="M147.7,77.9c0,0.2,0.1,0.3,0.2,0.5c0.1,0.3,0.2,0.5,0.3,0.7c0.3,0.6,0.4,1.3,0.8,1.6
				c0.3,0.2,0.6,0.3,0.9,0.6c0.2,0.2,0.2,0.5,0.4,0.8c0.1,0.2,0.5,0.6,0.7,0.8c0.4,0.4,1.1,0.7,1.4,1.2c0.2,0.3,0.3,0.9-0.1,1
				c-0.5,0.1-0.8-0.7-1.1-0.9c-0.1-0.1-0.2-0.1-0.3-0.2c-0.1-0.1-0.1-0.3-0.2-0.4c-0.4-0.5-0.9-0.8-1.6-1c-0.2-0.1-0.4-0.4-0.7-0.5
				c-1-0.6-1.4-1.2-1.9,0.1c-0.5,1.5-0.6,3.4-0.7,4.9c-0.3,0.2-0.3,0.2-0.6,0.5c-0.1,0-0.3-0.1-0.4-0.1c1.3-0.5,0.2-4.1,0.1-5.1
				c-0.1-1.4-0.2-2.9,0-4.3c0-0.1,0-0.2,0-0.2C145.8,77.8,146.7,77.9,147.7,77.9z"/>
			<path class="st82" d="M144.6,74.9c0.5-0.1,1-0.1,1.5-0.2c0-0.5-0.3-1.1-0.1-1.6c0.2-0.6,1.3-0.5,1.5,0.1c0.1,0.4,0,0.8-0.1,1.2
				c0,0.1-0.1,0.3,0,0.5c0.1,0.1,0.3,0.1,0.4,0.3c0.1,0.1,0.1,0.2,0.2,0.2c0.1,0,0.3,0.1,0.4,0.2c0.1,0.1,0.2,0.2,0.3,0.2
				c0.1,0.1,0.1,0.2,0.2,0.2c0.1,0.1,0.1,0.1,0.2,0.2c0.1,0.1,0.1,0.2,0.2,0.3c0.1,0.2,0.3,0.3,0.5,0.4c0.2,0.1,0.4,0.3,0.5,0.4
				c0.6,0.5,0.9,1.3,1.5,1.6c0.1,0.1,0.3,0.1,0.5,0.2c0.3,0.2,0.5,0.7,0.1,0.9c-0.2,0-0.1-0.3-0.2-0.3c0,0.1,0.2,0.3,0,0.4
				c-0.2-0.1-0.2-0.3-0.3-0.4c-0.1-0.1-0.2-0.1-0.3-0.1c-0.2-0.1-0.3-0.3-0.4-0.4c-0.3-0.2-0.6-0.4-0.9-0.7
				c-0.2-0.2-0.5-0.4-0.7-0.7c-0.1-0.1-0.1-0.2-0.2-0.2c-0.1-0.1-0.3-0.1-0.4-0.2c-0.1-0.1-0.2-0.2-0.3-0.4
				c-0.1-0.1-0.2-0.2-0.3-0.2c-0.1,0-0.2-0.1-0.2-0.1c-0.1,0.3-0.2,0.6-0.2,1c0,0.1,0,0.2,0,0.3c-0.9,0-1.9,0-2.8-0.2
				c0,0,0-1.1-0.3-1.3c-0.4-0.3-0.9,0-1.3,0.2c-1,0.3-2,0.8-2.9,1.4c0.2-0.2,0.1-0.6,0.3-0.8c0.2-0.3,0.6-0.3,0.9-0.5
				C142.4,76,143.5,75.1,144.6,74.9z"/>
		</g>
		<g>
			<path class="st81" d="M154.3,100.8c-0.2,1.1-0.6,2.4,0.2,2.7c0.3-0.5,0-1,0.1-1.5c0-0.5,0.4-0.9,0.6-1.4c-0.3,0-0.5,0-0.8,0
				C154.4,100.7,154.4,100.7,154.3,100.8z M154.4,103.2c-0.1-0.1-0.1-0.3-0.1-0.4C154.5,102.9,154.4,103.1,154.4,103.2z"/>
			<path class="st82" d="M158.6,99.3c0.2,0.4,0.3,0.9,0.2,1.3c0.3,0,0.5,0,0.8,0c0,0,0,0,0,0c0-0.6-0.4-1.4-0.2-2.1
				c-0.3-0.7-1.4-0.7-1.6-1.5c0.8-0.5,0.6-2.1-0.4-2.1c-0.3,0-0.6,0.3-0.9,0.5c0,0.6-0.2,1.6,0.3,1.8c-0.8,0.3-2.1,0.3-1.7,1.6
				c-0.2,0.6-0.6,1.2-0.8,1.9c0.3,0,0.5,0,0.8,0c0.1-0.1,0.1-0.2,0.1-0.3c0.2-0.4,0.1-0.8,0.4-1.1c0,0.5,0.1,1,0.2,1.4
				c0.8,0,1.6,0,2.4,0C158.3,100.1,158.3,99.6,158.6,99.3z"/>
			<path class="st81" d="M159.6,100.6c-0.3,0-0.5,0-0.8,0c0,0.3-0.1,0.7-0.2,1c-0.2-0.3-0.3-0.6-0.3-1c-0.8,0-1.6,0-2.4,0
				c0.1,0.5,0.2,1.1,0.1,1.7c-0.1,0.4-0.4,0.9-0.5,1.3c-0.1,0.5-0.1,1.1-0.3,1.6c-0.1,0.5-0.5,0.9-0.7,1.4c-0.3,0.6-0.1,1.4-0.3,2
				c-0.2,0.7-0.8,1.1-1.1,1.6c0.6,0.6,0.9-0.6,1.5-0.7c-0.3-1,0.4-1.4,0.7-2.2c0.1-0.3,0.1-0.6,0.2-0.9c0.2-0.4,0.6-0.8,0.8-1.2
				c0.1-0.2,0.1-0.4,0.2-0.6c0.3-0.6,0.8-1.1,1.1-1.7c-0.3,2-0.2,4.4-0.5,6.4c0.7,0,0.8,0.9,1.5,0.5c-0.1-0.6-0.8-0.6-0.9-1.2
				c-0.1-0.6,0.4-1.5,0.5-2.3c0-0.4,0-1,0.1-1.4c0.1-0.6,0.4-1,0.6-1.5c0.1-0.5-0.1-1,0.1-1.5C158.9,101.7,159.5,101.2,159.6,100.6z
				"/>
		</g>
		<g>
			<path class="st81" d="M98.8,47.2c-0.3,0-0.5,0-0.8,0c0.2,0.5,0.6,0.9,0.6,1.4c0,0.5-0.2,1,0.1,1.5c0.8-0.3,0.4-1.6,0.2-2.7
				C98.9,47.3,98.8,47.3,98.8,47.2z M98.8,49.4c0.1,0.1,0.1,0.3-0.1,0.4C98.8,49.7,98.7,49.5,98.8,49.4z"/>
			<path class="st82" d="M94.7,45.9c-0.2,0.4-0.3,0.9-0.2,1.3c-0.3,0-0.5,0-0.8,0c0,0,0,0,0,0c0-0.6,0.4-1.4,0.2-2.1
				c0.3-0.7,1.4-0.7,1.6-1.5c-0.8-0.5-0.6-2.1,0.4-2.1c0.3,0,0.6,0.3,0.9,0.5c0,0.6,0.2,1.6-0.3,1.8c0.8,0.3,2.1,0.3,1.7,1.6
				c0.2,0.6,0.6,1.2,0.8,1.9c-0.3,0-0.5,0-0.8,0c-0.1-0.1-0.1-0.2-0.1-0.3c-0.2-0.4-0.1-0.8-0.4-1.1c0,0.5-0.1,1-0.2,1.4
				c-0.8,0-1.6,0-2.4,0C94.9,46.7,94.9,46.2,94.7,45.9z"/>
			<path class="st81" d="M93.6,47.2c0.3,0,0.5,0,0.8,0c0,0.3,0.1,0.7,0.2,1c0.2-0.3,0.3-0.6,0.3-1c0.8,0,1.6,0,2.4,0
				c-0.1,0.5-0.2,1.1-0.1,1.7c0.1,0.4,0.4,0.9,0.5,1.3c0.1,0.5,0.1,1.1,0.3,1.6c0.1,0.5,0.5,0.9,0.7,1.4c0.3,0.6,0.1,1.4,0.3,2
				c0.2,0.7,0.8,1.1,1.1,1.6c-0.6,0.6-0.9-0.6-1.5-0.7c0.3-1-0.4-1.4-0.7-2.2c-0.1-0.3-0.1-0.6-0.2-0.9c-0.2-0.4-0.6-0.8-0.8-1.2
				c-0.1-0.2-0.1-0.4-0.2-0.6c-0.3-0.6-0.8-1.1-1.1-1.7c0.3,2,0.2,4.4,0.5,6.4c-0.7,0-0.8,0.9-1.5,0.5c0.1-0.6,0.8-0.6,0.9-1.2
				c0.1-0.6-0.4-1.5-0.5-2.3c0-0.4,0-1,0-1.4c-0.1-0.6-0.4-1-0.6-1.5c-0.1-0.5,0.1-1-0.1-1.5C94.3,48.2,93.7,47.8,93.6,47.2z"/>
		</g>
		<g>
			<path class="st81" d="M216.9,100.8c-0.3,0.2-0.6,0.5-0.7,0.9c0.3,0.1,0.5,0.3,0.9,0.2c0.2-0.5,0.5-1.3,0.7-2.1
				c-0.2,0-0.4,0-0.6,0C217.1,100.2,217,100.5,216.9,100.8z"/>
			<path class="st82" d="M217.3,97.2c-0.1-0.2-0.1-0.7-0.3-0.9c-0.3-0.3-1.4-0.2-1.6-0.8c-0.2-0.6,0.3-1.4-0.3-1.8
				c-0.8-0.6-1.6,0.4-1.2,1.5c0.2,0.2,0.5,0.7,0.7,1.1c-0.2,0.1-0.4,0.2-0.5,0.4c0.1,0.4-0.2,0.7-0.2,1.1c0,0.3,0.2,0.6,0.2,0.9
				c0,0.2-0.3,0.4-0.4,0.6c-0.1,0.2-0.1,0.4-0.1,0.5c0.9,0,1.8,0,2.7,0.1c0-0.8,0.1-1.5,0.5-2.2c0,0.5,0.6,0.7,0.7,1.2
				c0.1,0.3,0,0.7-0.1,1.1c0.2,0,0.4,0,0.6,0c0,0,0-0.1,0-0.1C218.2,98.5,217.6,98.1,217.3,97.2z"/>
			<path class="st81" d="M213.4,99.9c-0.2,0.6-0.8,1.1-1,1.8c0.2-0.1,0.5,0.3,0.8,0.1c-0.1-0.5,0.4-1.5,0.8-1.7
				c-0.4,1.2-0.8,2.4-0.8,3.9c0,0.9,0.5,1.8,0.2,2.7c-0.2,0.5-1,0.4-1.1,1c0.6,0.1,1.1-0.4,1.8-0.4c-0.3-1.1,0.5-2.1,0-3.1
				c0.2-0.4,0.3-1,0.7-1.3c0.2,0.4,0.1,0.8,0.2,1.3c0.1,0.6,0.5,1,0.6,1.5c0,0.2,0,0.3,0,0.5c0.1,0.6,0.5,1,0.5,1.4
				c0,0.7-0.5,1-0.7,1.8c0.3-0.1,0.4,0.2,0.8-0.1c0.5-0.3,0.4-0.9,0.4-1.5c0-0.5,0.1-1,0.1-1.4c0-0.7-0.5-1.3-0.6-2
				c0-0.6,0.2-1.1,0.2-1.7c0-1-0.1-1.9-0.1-2.7c-0.9,0-1.8,0-2.7-0.1C213.4,99.8,213.4,99.8,213.4,99.9z"/>
		</g>
		<g>
			<path class="st81" d="M103.2,82.7c0.3,0.2,0.6,0.5,0.7,0.9c-0.3,0.1-0.5,0.3-0.9,0.2c-0.2-0.5-0.5-1.3-0.7-2.1c0.2,0,0.4,0,0.6,0
				C103.1,82,103.2,82.4,103.2,82.7z"/>
			<path class="st82" d="M102.9,79c0.1-0.2,0.1-0.7,0.3-0.9c0.3-0.3,1.4-0.2,1.6-0.8c0.2-0.6-0.3-1.4,0.3-1.8
				c0.8-0.6,1.6,0.4,1.2,1.5c-0.2,0.2-0.5,0.7-0.7,1.1c0.2,0.1,0.4,0.2,0.5,0.4c-0.1,0.4,0.2,0.7,0.2,1.1c0,0.3-0.2,0.6-0.2,0.9
				c0,0.2,0.3,0.4,0.4,0.6c0.1,0.2,0.1,0.4,0.1,0.5c-0.9,0-1.8,0-2.7,0.1c0-0.8-0.1-1.5-0.5-2.2c0,0.5-0.6,0.7-0.7,1.2
				c-0.1,0.3,0,0.7,0.1,1.1c-0.2,0-0.4,0-0.6,0c0,0,0-0.1,0-0.1C102,80.4,102.6,79.9,102.9,79z"/>
			<path class="st81" d="M106.8,81.7c0.2,0.6,0.8,1.1,1,1.8c-0.2-0.1-0.5,0.3-0.8,0.1c0.1-0.5-0.4-1.5-0.8-1.7
				c0.4,1.2,0.8,2.4,0.8,3.9c0,0.9-0.5,1.8-0.2,2.7c0.2,0.5,1,0.4,1.1,1c-0.6,0.1-1.1-0.4-1.8-0.4c0.3-1.1-0.5-2.1,0-3.1
				c-0.2-0.4-0.3-1-0.7-1.3c-0.2,0.4-0.1,0.8-0.2,1.3c-0.1,0.6-0.5,1-0.6,1.5c0,0.2,0,0.3,0,0.5c-0.1,0.6-0.5,1-0.5,1.4
				c0,0.7,0.5,1,0.7,1.8c-0.3-0.1-0.4,0.2-0.8-0.1c-0.5-0.3-0.4-0.9-0.4-1.5c0-0.5-0.1-1-0.1-1.4c0-0.7,0.5-1.3,0.6-2
				c0-0.6-0.2-1.1-0.2-1.7c0-1,0.1-1.9,0.1-2.7c0.9,0,1.8,0,2.7-0.1C106.8,81.7,106.8,81.7,106.8,81.7z"/>
		</g>
		<g>
			<path class="st81" d="M111.7,60.6c-0.9,0-1.9,0-2.9,0c-0.1,0.9-0.4,1.9-0.1,2.9c-0.1,0.2-0.4,0.4-0.3,0.8c0.1,0.1,0.3,0,0.4,0
				c0.5,0.8,0.2,1.6,0.3,2.5c0.2,1.2,0.9,2.1,0.6,3.4c0.2,0.1,0.7,0.2,0.9,0.1c-0.1-0.8-0.5-1.4-0.5-2.3c0-1.1-0.3-2.4-0.1-3.6
				c0.8,0.4,1.1,2.4,2.3,1.6c0.4-1.9-0.6-3.3-0.6-5C111.7,60.8,111.7,60.7,111.7,60.6z M110.7,64.1c-0.2-0.3-0.6-0.7-0.3-1.3
				C110.5,63.2,110.9,63.6,110.7,64.1z"/>
			<path class="st82" d="M104.9,59.7c0.3-0.1,0.5,0.2,0.6,0.1c-0.2-0.1-0.6-0.1-0.6-0.4c0.3,0,0.4,0.1,0.6,0.2
				c0-0.2-0.3-0.2-0.3-0.4c0.2-0.1,0.3,0.4,0.4,0.2c-0.1,0-0.1-0.2,0-0.2c0.1,0.1,0.1,0.2,0.2,0.3c1.1-1,2-2.1,3.6-2.5
				c-0.1-0.2-0.2-0.3-0.3-0.6c0.1,0,0.2,0,0.2-0.1c-0.3-1.6,2.2-0.9,1.4,0.6c1.1,0.1,1.6,0.9,2.2,1.6c0.7,0.9,1.4,2,0.6,2.7
				c-0.2-0.1,0.1-0.2-0.1-0.3c-0.1,0-0.2,0.3-0.3,0.1c0.5-1.2-0.7-2-1.4-2.5c-0.1,0.7-0.2,1.3-0.2,2c-0.9,0-1.9,0-2.9,0
				c0-0.2,0-0.4,0-0.6c-0.3-0.4-0.3-1-0.3-1.4c-1.4,0.1-2.1,1.3-3.1,2c-0.1-0.3,0.3-0.2,0.3-0.6C105.4,59.9,105,60,104.9,59.7z"/>
		</g>
	</g>
	<g>
		<text transform="matrix(1.5 0 0 1.5 243.2009 67.5045)" class="st88 st89">5m line</text>
	</g>
	<!--<g>
		<text transform="matrix(1 0 0 1 203.0619 51.9352)" class="st88 st89">Mid pool line</text>
	</g>-->
	<g>
		<text transform="matrix(1.5 0 0 1.5 58.0322 155.4782)" class="st88 st89">Centre area</text>
	</g>
	<g>
		<circle class="st90" cx="211" cy="118" r="1.1"/>
		<circle class="st91" cx="211" cy="118" r="1.1"/>
	</g>
	<g>
		<line class="st90" x1="211" y1="118" x2="143.5" y2="153"/>
		<line class="st92" x1="211" y1="118" x2="143.5" y2="153"/>
	</g>
	<!--<g>
		<text transform="matrix(1 0 0 1 14.1568 117.9254)" class="st88 st89">2m line</text>
	</g>-->
	<!--<g>
		<circle class="st90" cx="53.3" cy="79.4" r="1.1"/>
		<circle class="st91" cx="53.3" cy="79.4" r="1.1"/>
	</g>-->
	<!--<g>
		<polyline class="st90" points="51.3,79.3 20.3,79.3 20.3,102.5 		"/>
		<polyline class="st92" points="51.3,79.3 20.3,79.3 20.3,102.5 		"/>
	</g>-->
	<!--<g>
		<circle class="st90" cx="187.2" cy="68.9" r="1.1"/>
		<circle class="st91" cx="187.2" cy="68.9" r="1.1"/>
	</g>-->
	<!--<g>
		<polyline class="st90" points="187.2,66.9 187.2,48.2 201.1,48.2 		"/>
		<polyline class="st92" points="187.2,66.9 187.2,48.2 201.1,48.2 		"/>
	</g>-->
	<g>
		<circle class="st90" cx="234.5" cy="96.5" r="1.1"/>
		<circle class="st91" cx="234.5" cy="96.5" r="1.1"/>
	</g>
	<g>
		<polyline class="st90" stroke="black" points="234.4,94.6 234.4,64.5 240.7,64.5 		"/>
		<polyline class="st92" stroke="black" points="234.4,94.6 234.4,64.5 240.7,64.5 		"/>
	</g>
	<g>
		<polyline class="st90" points="234.4,94.6 234.4,64.5 240.7,64.5 		"/>
		<polyline class="st92" points="234.4,94.6 234.4,64.5 240.7,64.5 		"/>
	</g>
</g>
</svg>
